<svg xmlns="http://www.w3.org/2000/svg" width="30.017" height="30.017" viewBox="0 0 30.017 30.017">
  <g id="Group_4066" data-name="Group 4066" transform="translate(-1590.464 -6014)">
    <path id="Path_32" data-name="Path 32" d="M9.777,0H3.726A3.731,3.731,0,0,0,0,3.726v6.05A3.731,3.731,0,0,0,3.726,13.5h6.05A3.731,3.731,0,0,0,13.5,9.777V3.726A3.731,3.731,0,0,0,9.777,0Zm2.529,9.777a2.531,2.531,0,0,1-2.528,2.528H3.726A2.531,2.531,0,0,1,1.2,9.777V3.726A2.531,2.531,0,0,1,3.726,1.2h6.05a2.531,2.531,0,0,1,2.528,2.528v6.05Z" transform="translate(1598.868 6022.405)" fill="#59575c"/>
    <path id="Path_33" data-name="Path 33" d="M44.447,40.97a3.479,3.479,0,1,0,3.479,3.479A3.483,3.483,0,0,0,44.447,40.97Zm0,5.761a2.281,2.281,0,1,1,2.281-2.281A2.284,2.284,0,0,1,44.447,46.731Z" transform="translate(1561.172 5984.707)" fill="#59575c"/>
    <path id="Path_34" data-name="Path 34" d="M119.8,28.251a.878.878,0,1,0,.621.257A.882.882,0,0,0,119.8,28.251Z" transform="translate(1492.446 5996.41)" fill="#59575c"/>
    <g id="Rectangle_394" data-name="Rectangle 394" transform="translate(1590.464 6014)" fill="none" stroke="#979797" stroke-width="1">
      <rect width="30.017" height="30.017" rx="3" stroke="none"/>
      <rect x="0.5" y="0.5" width="29.017" height="29.017" rx="2.5" fill="none"/>
    </g>
  </g>
</svg>
