<svg xmlns="http://www.w3.org/2000/svg" width="170" height="91" viewBox="0 0 170 91"><g transform="translate(-237 0.077)"><rect width="170" height="91" transform="translate(237 -0.077)" fill="#0079c2"/><rect width="105.115" height="18.051" transform="translate(291.82 67.765)" fill="#fff"/><path d="M106.709,116.55l2.4,10.832h-2.566l-.394-2.173h-1.976l-.332,2.173H101.25L103.6,116.55Zm-.9,6.715-.7-4.77h0l-.677,4.77Z" transform="translate(194.01 -45.171)" fill="#0079c2"/><path d="M128.616,127.382H126V116.55h3.791c1.508,0,3.17.542,3.17,3.3s-1.631,3.305-3.17,3.305h-1.176Zm0-6.155h.462c.652,0,1.268-.314,1.268-1.385s-.554-1.329-1.311-1.329h-.419Z" transform="translate(184.492 -45.171)" fill="#0079c2"/><path d="M152.584,116.55l.849,4.388c.178.892.271,2.4.388,3.428h0c.123-.985.246-2.659.394-3.428l.843-4.388H158.7v10.832h-2.462V123.6c0-1.04.074-3.816.135-4.721h0l-1.613,8.524h-1.822l-1.619-8.524h0c.043.751.135,3.243.135,4.708V127.4H148.99V116.568Z" transform="translate(175.651 -45.171)" fill="#0079c2"/><path d="M178.1,116.55h6.093V118.6h-3.459v2.13h3.077v2.049h-3.077v2.548h3.459v2.056H178.1Z" transform="translate(164.457 -45.171)" fill="#0079c2"/><path d="M203.29,120.729h1.7V116.55h2.61v10.832h-2.61v-4.6h-1.7v4.6h-2.61V116.55h2.61Z" transform="translate(155.775 -45.171)" fill="#0079c2"/><path d="M227.71,116.55v2.683c0,1.194-.332,2.93-.388,4.117h0l2.2-6.77h2.493v10.832h-2.493v-2.523c0-1.157.363-2.923.486-4.074h0l-2.246,6.6H225.23V116.581Z" transform="translate(146.334 -45.171)" fill="#0079c2"/><path d="M252.754,123.215l-1.539,4.167H248.44l2.037-4.782a3.219,3.219,0,0,1-1.526-2.911,2.922,2.922,0,0,1,2.954-3.139h3.97v10.832h-2.61v-4.167Zm.511-4.721h-.615c-.677,0-1.1.511-1.1,1.342s.425,1.434,1.071,1.434h.615Z" transform="translate(137.408 -45.171)" fill="#0079c2"/><path d="M76.5,30.676C74.9,23.647,70.884,17.936,70.349,17a47.631,47.631,0,0,0-5.711,11.958A43.193,43.193,0,0,0,63.21,46.191,47.753,47.753,0,0,0,66.121,57.27a38.983,38.983,0,0,0,4.228,7.607,41.43,41.43,0,0,0,7.029-17.928A40.16,40.16,0,0,0,76.5,30.676ZM70.349,63.16a19.394,19.394,0,0,1-2.154-8.715,18.31,18.31,0,0,1,2.16-8.616,19.652,19.652,0,0,1,2.068,8.223A18.464,18.464,0,0,1,70.349,63.16ZM76.042,42.6a37.474,37.474,0,0,1-.769,7.2A44.646,44.646,0,0,0,74.4,39.569a45.114,45.114,0,0,0-4.081-11.078,43.968,43.968,0,0,0-4.025,11.023,51.932,51.932,0,0,0-.936,10.352,51.175,51.175,0,0,1-.671-10.032,44.363,44.363,0,0,1,1.459-9.1,48.813,48.813,0,0,1,4.173-10,45.3,45.3,0,0,1,4.228,9.847A43.482,43.482,0,0,1,76.042,42.6Z" transform="translate(208.754 -6.89)" fill="#fff"/><path d="M55.391,81.084h-12.2v8.155A7.386,7.386,0,0,1,53.6,99.652l-.037.037h0l-.043.043A14.71,14.71,0,1,1,43.186,74.585V54.89A26.194,26.194,0,1,0,62.3,98.982v-17.9Z" transform="translate(226.414 -21.46)" fill="#fff"/><path d="M95.66,54.9h9.989v3.25H100.9V81.082H95.66Z" transform="translate(196.16 -21.464)" fill="#fff"/><path d="M117.451,71.247l.9-13.1h.289l.9,13.1Zm-5.791,9.847h5.133l.486-6.961h2.462l.486,6.961h5.127L122.615,54.9h-8.229Z" transform="translate(190.005 -21.464)" fill="#fff"/><path d="M141.808,71.921v4.924a.806.806,0,0,0,.819.862.837.837,0,0,0,.825-.862V70.764c0-.825-.148-1.723-2.093-1.723h-2.136v-2.88h2.21c1.5,0,2.019-.332,2.019-1.945v-5.2a.837.837,0,0,0-.825-.862.806.806,0,0,0-.819.862V63.28H136.57V59.587c0-1.846.228-4.678,3.89-4.678H144.8c3.693,0,3.89,2.843,3.89,4.678v4.185a3.216,3.216,0,0,1-3.551,3.557v.258c3.514-.074,3.551,2.622,3.551,3.551v5.275c0,1.846-.222,4.678-3.89,4.678H140.46c-3.662,0-3.89-2.843-3.89-4.678V71.921Z" transform="translate(180.426 -21.469)" fill="#fff"/><path d="M160.73,54.9h12.118V81.082h-5.231V58.15h-1.649V81.082H160.73Z" transform="translate(171.137 -21.464)" fill="#fff"/><path d="M190.631,69.3V58.15h.677c.56,0,.972.486.972,1.3v8.536c0,.825-.412,1.311-.972,1.311ZM185.4,81.082h5.231V72.194h2.991c3.693,0,3.89-2.843,3.89-4.677V59.578c0-1.846-.222-4.678-3.89-4.678H185.4Z" transform="translate(161.652 -21.464)" fill="#fff"/><path d="M216.1,76.847a.843.843,0,0,1-.825.862.806.806,0,0,1-.825-.862V59a.806.806,0,0,1,.825-.862A.843.843,0,0,1,216.1,59ZM209.22,76.4c0,1.846.222,4.677,3.89,4.677h4.339c3.662,0,3.89-2.843,3.89-4.677V59.578c0-1.846-.228-4.678-3.89-4.678H213.11c-3.693,0-3.89,2.843-3.89,4.678Z" transform="translate(152.49 -21.464)" fill="#fff"/><path d="M246.9,54.9h6.77V81.082H248.5V64.661h-.191l-2.69,16.42h-4.191l-2.714-16.42h-.191v16.42H233.29V54.9h6.8l3.41,18.4Z" transform="translate(143.233 -21.464)" fill="#fff"/></g></svg>