<svg xmlns="http://www.w3.org/2000/svg" width="228.795" height="112.816" viewBox="0 0 228.795 112.816">
  <g id="Group_3759" data-name="Group 3759" transform="translate(20325 20527)">
    <rect id="Rectangle_522" data-name="Rectangle 522" width="156.635" height="26.899" transform="translate(-20252.84 -20441.086)" fill="#0079c2"/>
    <path id="Path_98" data-name="Path 98" d="M109.385,116.55l3.577,16.141h-3.824l-.587-3.237h-2.944l-.5,3.237H101.25l3.5-16.141Zm-1.348,10.006L107,119.448h0l-1.009,7.108Z" transform="translate(-20348.963 -20552.252)" fill="#fff"/>
    <path id="Path_99" data-name="Path 99" d="M129.9,132.691H126V116.55h5.649c2.247,0,4.723.807,4.723,4.916s-2.43,4.925-4.723,4.925H129.9Zm0-9.171h.688c.972,0,1.889-.468,1.889-2.064s-.825-1.981-1.953-1.981H129.9Z" transform="translate(-20351.016 -20552.252)" fill="#fff"/>
    <path id="Path_100" data-name="Path 100" d="M154.346,116.55l1.266,6.539c.266,1.33.4,3.577.578,5.108h0c.183-1.467.367-3.962.587-5.108l1.256-6.539h5.42v16.141h-3.668v-5.64c0-1.55.11-5.686.2-7.034h0l-2.4,12.7h-2.715l-2.412-12.7h0c.064,1.119.2,4.833.2,7.016v5.686H148.99V116.578Z" transform="translate(-20352.922 -20552.252)" fill="#fff"/>
    <path id="Path_101" data-name="Path 101" d="M178.1,116.55h9.079V119.6h-5.154v3.173h4.586v3.054h-4.586v3.8h5.154v3.063H178.1Z" transform="translate(-20355.334 -20552.252)" fill="#fff"/>
    <path id="Path_102" data-name="Path 102" d="M204.569,122.777h2.54V116.55H211v16.141h-3.889v-6.86h-2.54v6.86H200.68V116.55h3.889Z" transform="translate(-20357.205 -20552.252)" fill="#fff"/>
    <path id="Path_103" data-name="Path 103" d="M228.926,116.55v4c0,1.779-.5,4.365-.578,6.136h0l3.283-10.088h3.714v16.141h-3.714v-3.76c0-1.724.541-4.356.725-6.071h0l-3.348,9.831H225.23V116.6Z" transform="translate(-20359.24 -20552.252)" fill="#fff"/>
    <path id="Path_104" data-name="Path 104" d="M254.869,126.482l-2.293,6.209H248.44l3.036-7.126a4.8,4.8,0,0,1-2.274-4.338,4.354,4.354,0,0,1,4.4-4.677h5.915v16.141H255.63v-6.209Zm.761-7.034h-.917c-1.009,0-1.642.761-1.642,2s.633,2.137,1.6,2.137h.917Z" transform="translate(-20361.164 -20552.252)" fill="#fff"/>
    <path id="Path_105" data-name="Path 105" d="M83.169,37.378C80.784,26.9,74.8,18.394,74,17a70.975,70.975,0,0,0-8.511,17.82A64.363,64.363,0,0,0,63.359,60.5,71.159,71.159,0,0,0,67.7,77.007,58.09,58.09,0,0,0,74,88.343c2.6-3.393,8.6-13.5,10.474-26.716C85.526,54.281,85.572,47.852,83.169,37.378ZM74,85.784A28.9,28.9,0,0,1,70.788,72.8a27.284,27.284,0,0,1,3.219-12.84,29.284,29.284,0,0,1,3.082,12.253A27.514,27.514,0,0,1,74,85.784Zm8.483-30.632a55.842,55.842,0,0,1-1.146,10.73,66.528,66.528,0,0,0-1.3-15.252c-1-4.778-3.824-12.775-6.08-16.508-2.091,3.513-4.65,10.428-6,16.426A77.387,77.387,0,0,0,66.56,65.974a76.258,76.258,0,0,1-1-14.949,66.108,66.108,0,0,1,2.174-13.564,72.737,72.737,0,0,1,6.218-14.9,67.51,67.51,0,0,1,6.3,14.674A64.794,64.794,0,0,1,82.481,55.152Z" transform="translate(-20345.787 -20544)" fill="#0079c2"/>
    <path id="Path_106" data-name="Path 106" d="M74.217,93.923H56.031v12.152a11.005,11.005,0,0,1,15.518,15.518l-.055.055h0l-.064.064a21.919,21.919,0,1,1-15.4-37.473V54.89a39.033,39.033,0,1,0,28.486,65.7V93.923Z" transform="translate(-20341.98 -20547.141)" fill="#0079c2"/>
    <path id="Path_107" data-name="Path 107" d="M95.66,54.9h14.885v4.842h-7.08V93.914h-7.8Z" transform="translate(-20348.5 -20547.143)" fill="#0079c2"/>
    <path id="Path_108" data-name="Path 108" d="M120.29,79.259l1.339-19.516h.431L123.4,79.259Zm-8.63,14.674h7.649l.725-10.373H123.7l.725,10.373h7.64L127.985,54.9H115.723Z" transform="translate(-20349.828 -20547.143)" fill="#0079c2"/>
    <path id="Path_109" data-name="Path 109" d="M144.375,80.259V87.6a1.2,1.2,0,0,0,1.22,1.284,1.247,1.247,0,0,0,1.229-1.284V78.535c0-1.229-.22-2.568-3.118-2.568h-3.182V71.675h3.292c2.229,0,3.008-.5,3.008-2.9v-7.75a1.247,1.247,0,0,0-1.229-1.284,1.2,1.2,0,0,0-1.22,1.284v6.356h-7.8v-5.5c0-2.751.339-6.97,5.8-6.97h6.466c5.5,0,5.8,4.237,5.8,6.97v6.236c0,4.237-2.953,5.411-5.292,5.3V73.8c5.237-.11,5.292,3.907,5.292,5.292v7.86c0,2.751-.33,6.97-5.8,6.97h-6.466c-5.457,0-5.8-4.237-5.8-6.97V80.259Z" transform="translate(-20351.893 -20547.145)" fill="#0079c2"/>
    <path id="Path_110" data-name="Path 110" d="M160.73,54.9h18.058V93.914h-7.8V59.742h-2.458V93.914h-7.8Z" transform="translate(-20353.893 -20547.143)" fill="#0079c2"/>
    <path id="Path_111" data-name="Path 111" d="M193.2,76.361V59.742H194.2c.835,0,1.449.725,1.449,1.944v12.72c0,1.229-.614,1.953-1.449,1.953Zm-7.8,17.554h7.8V80.671h4.457c5.5,0,5.8-4.237,5.8-6.97V61.87c0-2.751-.33-6.97-5.8-6.97H185.4Z" transform="translate(-20355.936 -20547.143)" fill="#0079c2"/>
    <path id="Path_112" data-name="Path 112" d="M219.473,87.6a1.256,1.256,0,0,1-1.229,1.284,1.2,1.2,0,0,1-1.229-1.284v-26.6a1.2,1.2,0,0,1,1.229-1.284,1.256,1.256,0,0,1,1.229,1.284Zm-10.253-.66c0,2.751.33,6.97,5.8,6.97h6.466c5.457,0,5.8-4.237,5.8-6.97V61.87c0-2.751-.339-6.97-5.8-6.97h-6.466c-5.5,0-5.8,4.237-5.8,6.97Z" transform="translate(-20357.914 -20547.143)" fill="#0079c2"/>
    <path id="Path_113" data-name="Path 113" d="M253.577,54.9h10.088V93.914h-7.713V69.446h-.284L251.66,93.914h-6.246L241.37,69.446h-.284V93.914h-7.8V54.9h10.134L248.5,82.322Z" transform="translate(-20359.91 -20547.143)" fill="#0079c2"/>
  </g>
</svg>
