<svg xmlns="http://www.w3.org/2000/svg" width="30.017" height="30.017" viewBox="0 0 30.017 30.017">
  <g id="Group_4065" data-name="Group 4065" transform="translate(-1554.222 -6014)">
    <g id="Group_37" data-name="Group 37" transform="translate(1561.427 6022.405)">
      <path id="Path_30" data-name="Path 30" d="M14.883,49.432a6.362,6.362,0,0,1-1.758.482,3.034,3.034,0,0,0,1.342-1.686,6.1,6.1,0,0,1-1.935.739,3.051,3.051,0,0,0-5.278,2.086,3.142,3.142,0,0,0,.071.7,8.636,8.636,0,0,1-6.289-3.191,3.052,3.052,0,0,0,.938,4.078A3.013,3.013,0,0,1,.6,52.258v.033a3.065,3.065,0,0,0,2.445,3,3.044,3.044,0,0,1-.8.1,2.7,2.7,0,0,1-.578-.052,3.08,3.08,0,0,0,2.851,2.125,6.131,6.131,0,0,1-3.783,1.3A5.715,5.715,0,0,1,0,58.723a8.59,8.59,0,0,0,4.681,1.369,8.624,8.624,0,0,0,8.684-8.682c0-.135,0-.265-.011-.394A6.087,6.087,0,0,0,14.883,49.432Z" transform="translate(0 -48)" fill="#59575c"/>
    </g>
    <g id="Rectangle_396" data-name="Rectangle 396" transform="translate(1554.222 6014)" fill="none" stroke="#979797" stroke-width="1">
      <rect width="30.017" height="30.017" rx="3" stroke="none"/>
      <rect x="0.5" y="0.5" width="29.017" height="29.017" rx="2.5" fill="none"/>
    </g>
  </g>
</svg>
