<svg xmlns="http://www.w3.org/2000/svg" width="30.017" height="30.017" viewBox="0 0 30.017 30.017">
  <g id="Group_4069" data-name="Group 4069" transform="translate(-1662 -6014)">
    <g id="Group_4068" data-name="Group 4068">
      <g id="Rectangle_688" data-name="Rectangle 688" transform="translate(1662 6014)" fill="none" stroke="#979797" stroke-width="1">
        <rect width="30.017" height="30.017" rx="3" stroke="none"/>
        <rect x="0.5" y="0.5" width="29.017" height="29.017" rx="2.5" fill="none"/>
      </g>
      <g id="youtube-logo" transform="translate(1626.755 6022)">
        <g id="Group_4033" data-name="Group 4033" transform="translate(44.245)">
          <path id="Path_248" data-name="Path 248" d="M56.321,218.363a1.557,1.557,0,0,0-1.327-1.211q-1.526-.166-4.6-.166t-4.595.166a1.505,1.505,0,0,0-.854.39,1.575,1.575,0,0,0-.481.821,14.374,14.374,0,0,0-.216,2.9,14.078,14.078,0,0,0,.216,2.9,1.516,1.516,0,0,0,.477.821,1.47,1.47,0,0,0,.85.382,44.353,44.353,0,0,0,4.6.174,44.345,44.345,0,0,0,4.6-.174,1.451,1.451,0,0,0,.846-.382,1.574,1.574,0,0,0,.481-.821,14.372,14.372,0,0,0,.216-2.9A14.086,14.086,0,0,0,56.321,218.363Zm-8.568.838h-.887v4.719h-.829V219.2h-.871v-.78h2.588v.78Zm2.239,4.719h-.738v-.448a1.214,1.214,0,0,1-.846.506.447.447,0,0,1-.481-.307,2.053,2.053,0,0,1-.066-.606v-3.243H48.6v3.019a2.291,2.291,0,0,0,.008.29q.025.174.174.174.224,0,.473-.348v-3.135h.738v4.1Zm2.82-1.228a3.064,3.064,0,0,1-.074.83.574.574,0,0,1-.589.456,1.03,1.03,0,0,1-.771-.456v.4H50.64v-5.5h.738v1.8a1,1,0,0,1,.771-.448.576.576,0,0,1,.589.464,2.963,2.963,0,0,1,.074.821Zm2.8-.68H54.132v.722q0,.572.381.572a.317.317,0,0,0,.332-.3,4.133,4.133,0,0,0,.017-.506h.755v.108a3.672,3.672,0,0,1-.017.481,1.027,1.027,0,0,1-1.07.887,1.065,1.065,0,0,1-.9-.423,1.558,1.558,0,0,1-.24-.962v-1.435a1.6,1.6,0,0,1,.232-.962,1.134,1.134,0,0,1,1.767,0,1.645,1.645,0,0,1,.224.962v.854Z" transform="translate(-44.245 -210.683)" fill="#59575c"/>
          <path id="Path_249" data-name="Path 249" d="M290.16,336.043a.533.533,0,0,0-.373.182v2.5a.532.532,0,0,0,.373.182q.323,0,.324-.556V336.6Q290.484,336.043,290.16,336.043Z" transform="translate(-282.654 -326.281)" fill="#59575c"/>
          <path id="Path_250" data-name="Path 250" d="M384.954,336.043q-.373,0-.373.564v.382h.746v-.382Q385.327,336.043,384.954,336.043Z" transform="translate(-374.694 -326.281)" fill="#59575c"/>
          <path id="Path_251" data-name="Path 251" d="M113.542,3.309V5.557h.829V3.309l1-3.309h-.846l-.564,2.181L113.376,0H112.5q.232.7.539,1.551A14.058,14.058,0,0,1,113.542,3.309Z" transform="translate(-110.514)" fill="#59575c"/>
          <path id="Path_252" data-name="Path 252" d="M212.951,51.355a1.02,1.02,0,0,0,.879-.423,1.634,1.634,0,0,0,.232-.979V48.5a1.619,1.619,0,0,0-.232-.97,1.116,1.116,0,0,0-1.75,0,1.618,1.618,0,0,0-.232.97v1.451a1.658,1.658,0,0,0,.232.979A1.026,1.026,0,0,0,212.951,51.355Zm-.357-3q0-.572.357-.572t.357.572v1.742q0,.581-.357.581t-.357-.581Z" transform="translate(-206.979 -45.74)" fill="#59575c"/>
          <path id="Path_253" data-name="Path 253" d="M309.754,53.019a1.193,1.193,0,0,0,.854-.514v.456h.755V48.822h-.755v3.16q-.249.357-.473.357-.149,0-.174-.182a2.161,2.161,0,0,1-.008-.29V48.822H309.2V52.09a2.131,2.131,0,0,0,.066.622A.461.461,0,0,0,309.754,53.019Z" transform="translate(-301.501 -47.404)" fill="#59575c"/>
        </g>
      </g>
    </g>
  </g>
</svg>
